<?xml version="1.0" standalone="no"?>
<!DOCTYPE svg PUBLIC "-//W3C//DTD SVG 20010904//EN"
 "http://www.w3.org/TR/2001/REC-SVG-20010904/DTD/svg10.dtd">
<svg version="1.0" xmlns="http://www.w3.org/2000/svg"
 width="400.000000pt" height="400.000000pt" viewBox="0 0 400.000000 400.000000"
 preserveAspectRatio="xMidYMid meet">

<g transform="translate(0.000000,400.000000) scale(0.100000,-0.100000)"
fill="#000000" stroke="none">
<path d="M1288 3862 c-5 -13 -74 -52 -90 -52 -9 0 -21 -7 -28 -15 -7 -9 -21
-13 -30 -10 -20 6 -38 -12 -43 -42 -1 -12 -17 -33 -35 -48 -18 -15 -32 -35
-32 -46 0 -11 -10 -23 -24 -29 -31 -12 -41 -27 -26 -45 7 -9 11 -40 9 -82 -2
-37 -1 -73 3 -78 10 -17 -42 -95 -63 -95 -12 0 -19 -7 -19 -20 0 -11 -1 -23
-1 -27 -1 -5 8 -13 20 -19 11 -6 29 -18 40 -28 12 -11 27 -15 43 -11 16 4 29
1 37 -9 8 -9 21 -16 31 -16 18 0 120 -101 120 -120 0 -8 18 -10 56 -6 31 2 67
0 81 -7 24 -11 25 -19 8 -59 -4 -11 -3 -18 3 -18 12 0 17 16 28 85 9 59 7 75
-12 96 -19 21 -18 56 2 67 11 6 13 11 5 16 -6 4 -11 15 -11 25 0 15 11 19 61
24 69 6 89 18 69 42 -9 11 -10 19 -1 28 8 10 7 22 -1 44 -9 23 -9 44 -1 78
l11 48 -49 -6 c-44 -5 -50 -4 -67 20 -16 22 -26 26 -64 25 -49 -2 -81 21 -78
55 3 29 -11 63 -26 63 -15 0 -19 26 -5 34 4 3 11 18 14 33 6 27 41 69 82 98
17 12 17 14 3 15 -9 0 -18 -4 -20 -8z"/>
<path d="M1378 3814 c-57 -17 -61 -22 -46 -62 9 -24 9 -34 -1 -46 -20 -23 -46
-19 -61 9 -11 21 -11 27 3 43 10 10 17 26 17 36 0 30 -38 -1 -49 -40 -7 -27
-6 -43 6 -72 9 -20 15 -47 14 -59 -3 -27 11 -35 61 -35 31 1 46 -5 64 -25 21
-23 29 -25 74 -20 27 3 52 2 55 -2 2 -5 -2 -29 -11 -54 -14 -41 -14 -48 1 -77
12 -23 13 -35 5 -45 -8 -9 -6 -20 5 -41 8 -16 20 -42 25 -57 9 -26 13 -28 43
-22 53 11 144 75 107 75 -5 0 -12 16 -16 35 -3 19 -12 39 -20 46 -21 18 -17
32 9 26 12 -3 33 -8 46 -11 13 -3 26 -8 29 -10 2 -3 11 1 19 9 8 8 22 15 32
15 10 0 32 7 49 16 l32 15 -21 28 c-16 22 -18 32 -10 53 5 14 16 28 24 31 10
4 13 13 10 26 -3 13 2 24 16 33 31 19 25 31 -11 24 -18 -3 -40 -2 -47 3 -12 8
-11 13 10 29 28 24 23 33 -20 34 -29 1 -71 29 -71 48 0 5 -22 0 -49 -11 -46
-20 -50 -20 -87 -4 -23 10 -60 17 -91 15 -47 -1 -53 1 -53 19 0 16 -28 43 -42
40 -2 0 -24 -7 -50 -15z"/>
<path d="M970 3629 c0 -5 5 -7 10 -4 6 3 10 8 10 11 0 2 -4 4 -10 4 -5 0 -10
-5 -10 -11z"/>
<path d="M1912 3628 c-17 -9 -22 -17 -18 -34 5 -17 1 -24 -13 -29 -22 -7 -37
-53 -22 -68 5 -5 20 -10 33 -11 13 0 23 -8 24 -16 1 -8 5 -26 11 -39 7 -18 6
-32 -5 -53 -11 -24 -12 -35 -1 -61 21 -54 33 -58 89 -31 28 13 50 26 50 29 0
11 -24 55 -30 55 -4 0 -12 12 -18 26 -13 27 -2 61 24 77 20 12 17 44 -7 68
-16 16 -23 18 -35 8 -12 -9 -14 -6 -14 23 0 21 -7 41 -18 51 -21 19 -20 19
-50 5z"/>
<path d="M2065 3502 c-3 -3 -5 -14 -5 -24 0 -10 -6 -18 -14 -18 -25 0 -29 -50
-7 -74 12 -12 21 -27 21 -32 0 -5 7 -20 16 -32 16 -23 16 -23 30 -4 10 14 23
19 53 17 35 -2 41 1 49 24 6 18 4 33 -7 52 -14 25 -14 31 2 63 l17 36 -75 -2
c-41 0 -77 -3 -80 -6z"/>
<path d="M2224 3479 c-12 -13 -14 -26 -9 -46 10 -40 10 -64 1 -98 -6 -24 -5
-27 5 -18 6 7 24 10 38 7 23 -5 29 1 56 50 l29 56 -33 29 c-42 38 -66 43 -87
20z"/>
<path d="M1877 3456 c-7 -17 -63 -46 -89 -46 -10 0 -21 -7 -25 -16 -3 -9 -12
-13 -22 -9 -9 4 -29 11 -44 16 -25 7 -27 6 -16 -7 6 -8 9 -17 6 -21 -10 -9 12
-43 28 -43 22 0 18 -28 -5 -35 -11 -3 -20 -11 -20 -16 0 -6 -16 -17 -35 -25
-19 -8 -35 -18 -35 -23 0 -15 -63 -9 -87 8 -12 9 -23 23 -23 33 0 14 -9 15
-62 11 -71 -6 -80 -10 -55 -24 23 -13 22 -39 -2 -39 -30 0 -33 -15 -11 -57 18
-35 19 -46 10 -99 -6 -32 -13 -74 -16 -91 -4 -26 -10 -33 -27 -32 -36 1 -97
-18 -118 -37 -11 -9 -22 -34 -25 -55 -4 -21 -13 -40 -20 -43 -35 -14 7 -107
70 -157 27 -21 29 -21 56 -6 39 23 40 22 40 -23 l0 -40 59 0 c33 0 61 3 63 8
6 14 93 55 125 59 l33 3 0 -49 c0 -42 5 -53 32 -80 18 -17 38 -29 45 -27 15 6
44 -5 88 -33 17 -11 40 -20 51 -20 35 -1 67 -34 69 -72 2 -19 8 -46 14 -61 9
-25 16 -28 56 -28 40 0 46 -2 41 -18 -4 -13 4 -30 25 -51 27 -29 30 -37 23
-69 -9 -45 -8 -94 3 -147 8 -37 11 -40 43 -40 62 -1 79 -12 91 -61 11 -41 14
-45 35 -40 30 8 46 -20 38 -63 -5 -24 -3 -31 9 -31 19 0 27 -12 37 -57 8 -32
6 -36 -28 -57 -40 -25 -79 -65 -104 -106 -15 -25 -15 -26 22 -53 21 -15 41
-27 45 -27 7 0 100 -61 135 -88 21 -18 22 -22 10 -38 -13 -15 -13 -17 0 -12
16 5 28 38 29 84 1 17 7 37 15 44 8 6 16 21 18 33 2 17 9 21 31 19 21 -2 27 1
27 17 0 11 12 34 27 51 28 34 31 62 14 126 -12 47 -9 76 10 82 8 3 29 20 48
38 31 29 91 61 91 48 0 -3 12 7 27 21 15 14 35 26 43 27 31 3 35 4 47 11 7 4
21 2 31 -4 15 -10 23 -7 48 17 16 16 30 38 31 50 1 11 16 42 33 67 20 30 29
54 25 66 -3 10 0 31 6 47 20 48 27 125 18 195 -10 80 0 124 27 124 13 0 27 17
46 57 16 33 36 59 48 63 11 3 20 10 20 14 0 4 9 17 19 28 48 51 58 121 29 208
-11 34 -17 40 -43 41 -49 1 -51 2 -107 50 -74 63 -94 72 -166 71 -35 0 -68 5
-74 11 -18 18 -49 14 -83 -8 -16 -11 -33 -20 -36 -20 -3 0 -5 18 -5 40 1 21
-3 40 -9 40 -5 1 -17 7 -25 14 -20 17 -90 42 -115 42 -13 -1 -19 -7 -17 -18 2
-11 -3 -18 -12 -18 -9 0 -25 -13 -38 -30 -24 -33 -38 -38 -38 -15 0 8 -9 15
-19 15 -31 0 -51 11 -51 27 0 11 -6 13 -22 8 -52 -16 -68 -17 -68 -5 0 6 9 14
20 17 11 3 20 12 20 20 0 7 20 35 43 61 48 52 64 82 43 82 -15 0 -32 34 -41
84 -4 20 -11 36 -15 36 -11 0 -36 -31 -51 -65 -15 -32 -25 -33 -150 -22 -28 3
-36 0 -35 -12 1 -12 -7 -15 -28 -13 -16 2 -53 -6 -82 -18 -42 -17 -56 -19 -74
-10 -38 20 -56 104 -28 137 8 10 7 18 -4 31 -9 9 -13 23 -11 30 6 17 -14 15
-20 -2z"/>
<path d="M860 3241 c-14 -4 -25 -14 -25 -23 0 -9 -4 -20 -9 -25 -16 -16 -36
-76 -36 -109 0 -32 2 -34 26 -28 29 8 30 3 6 -73 -8 -26 -8 -33 3 -33 7 0 21
-7 29 -16 16 -15 36 -11 36 8 0 34 35 78 73 93 53 21 76 42 94 83 20 47 -1 80
-50 79 -22 -1 -45 8 -69 26 -37 29 -39 29 -78 18z"/>
<path d="M1083 3168 c15 -44 -49 -126 -114 -147 -30 -10 -41 -21 -58 -61 -25
-58 -37 -67 -60 -46 -10 9 -25 16 -34 16 -22 0 -31 18 -17 35 15 18 -1 20 -18
3 -15 -15 -16 -64 -1 -73 5 -4 9 -14 7 -23 -2 -10 9 -26 27 -38 16 -12 39 -38
50 -57 11 -20 42 -76 69 -124 27 -48 57 -99 66 -113 61 -91 72 -111 67 -123
-9 -24 62 -81 163 -134 52 -27 110 -64 129 -81 41 -39 48 -40 56 -3 3 16 13
35 21 42 20 16 18 22 -16 42 -32 19 -39 41 -17 54 21 12 30 43 31 104 2 73
-26 123 -70 124 -25 0 -29 4 -32 32 -3 30 -5 31 -38 26 -25 -4 -38 -1 -47 10
-7 8 -21 17 -32 19 -11 2 -20 10 -20 18 0 8 -10 32 -23 52 -24 39 -23 67 3 98
7 8 16 32 20 52 6 31 14 40 49 57 22 10 47 21 55 23 7 2 19 21 27 43 17 51 7
58 -69 50 -47 -5 -58 -3 -63 10 -9 23 -118 134 -111 113z"/>
<path d="M2412 3134 c1 -35 2 -36 32 -30 31 6 69 43 60 58 -3 4 -25 8 -49 8
l-44 0 1 -36z"/>
<path d="M1511 2594 c-32 -22 -60 -34 -72 -31 -24 6 -24 0 -1 -38 17 -29 19
-70 8 -170 -2 -20 3 -38 17 -53 l21 -22 -22 -30 c-26 -35 -27 -43 -7 -60 8 -7
15 -21 15 -31 0 -10 9 -26 19 -36 13 -12 19 -28 16 -48 -1 -18 5 -41 16 -57
10 -14 19 -28 19 -31 0 -2 7 -21 16 -42 l15 -38 32 31 c29 28 36 30 72 23 22
-5 48 -12 58 -16 10 -4 17 -3 17 3 0 6 17 12 38 14 31 3 37 7 40 28 1 14 7 42
14 63 9 31 18 39 48 47 82 22 99 23 126 5 29 -19 42 -10 45 30 2 37 -2 50 -26
70 -13 11 -25 29 -27 40 -2 11 -10 20 -18 21 -8 1 -27 2 -42 2 -20 2 -29 10
-38 35 -7 17 -12 39 -11 48 4 34 -18 69 -43 69 -14 0 -49 14 -79 30 -30 17
-64 30 -74 30 -10 0 -34 13 -52 28 -31 26 -36 39 -40 100 -2 33 -37 28 -100
-14z"/>
<path d="M1423 2164 c-16 -16 -16 -39 -2 -66 12 -23 19 -148 23 -438 2 -121 7
-214 14 -225 20 -39 30 -127 21 -190 -18 -131 -16 -187 10 -223 19 -27 22 -41
17 -73 -8 -51 7 -81 37 -74 29 8 62 -26 54 -55 -3 -11 -1 -23 4 -26 5 -3 7
-10 3 -15 -3 -5 0 -16 6 -24 6 -8 9 -18 6 -24 -4 -5 3 -12 14 -16 23 -7 23 -9
11 -51 -5 -19 -5 -37 1 -48 6 -10 6 -22 0 -29 -13 -18 1 -62 20 -59 8 1 21 -4
27 -12 10 -12 9 -20 -5 -41 -13 -20 -14 -25 -3 -23 9 2 15 -8 17 -29 2 -18 8
-33 13 -33 6 0 8 9 4 19 -3 11 -1 28 6 39 7 12 9 30 4 48 -6 26 -12 74 -16
143 0 14 -9 25 -20 28 -11 3 -19 10 -18 17 3 16 -20 68 -39 89 -9 10 -17 29
-17 41 -1 13 -7 36 -13 52 -17 43 -30 142 -20 152 5 5 -1 29 -12 55 -14 31
-19 55 -14 70 4 12 8 54 8 92 1 65 -2 74 -37 128 -34 52 -37 61 -28 92 5 20 7
59 4 88 -4 41 -2 56 11 66 9 7 16 24 16 36 0 13 7 26 16 29 11 4 13 10 6 19
-5 6 -10 19 -11 27 0 8 -4 31 -7 51 -5 32 -2 39 25 58 37 27 44 71 11 71 -11
0 -20 5 -20 11 0 5 -13 37 -30 71 -16 33 -30 73 -30 88 0 15 -7 33 -15 40 -8
7 -15 20 -15 30 0 26 -22 41 -37 24z"/>
<path d="M1907 2088 c-44 -12 -52 -25 -62 -95 -7 -51 -6 -52 36 -92 23 -23 53
-44 68 -47 33 -7 35 -8 106 -47 62 -34 63 -35 47 -99 -11 -43 -5 -48 66 -48
72 1 90 20 94 105 3 64 1 70 -17 70 -31 0 -42 12 -49 49 -8 44 -21 53 -74 55
-55 1 -62 6 -62 38 0 48 -22 101 -47 112 -28 13 -54 13 -106 -1z"/>
<path d="M1631 1941 c-7 -5 -17 -28 -22 -52 -6 -28 -20 -52 -36 -66 -27 -22
-27 -22 -14 -89 7 -37 8 -70 4 -73 -14 -10 -42 -75 -44 -101 -2 -14 1 -35 5
-47 4 -13 4 -28 0 -35 -15 -24 -13 -62 4 -74 9 -8 14 -14 9 -14 -4 0 3 -17 16
-37 31 -49 37 -77 27 -114 -6 -20 -5 -37 2 -49 9 -14 8 -23 -4 -42 -15 -22
-14 -28 9 -77 18 -37 22 -55 14 -60 -15 -10 -4 -95 18 -140 10 -20 16 -44 13
-54 -2 -11 6 -28 17 -38 11 -11 24 -31 27 -44 3 -14 12 -25 19 -25 19 0 25
-12 29 -57 3 -21 9 -53 15 -72 7 -24 7 -38 0 -47 -7 -9 -6 -19 3 -33 10 -16
10 -27 0 -53 -15 -41 5 -78 43 -78 18 0 28 -8 35 -24 12 -33 46 -51 95 -51 32
0 41 4 41 18 0 9 -4 17 -8 17 -4 0 -8 20 -8 45 0 47 7 54 29 32 11 -10 12 -6
7 19 -6 27 -3 35 19 52 15 12 24 26 21 31 -4 5 -1 13 5 17 15 9 -8 24 -38 24
-13 0 -37 13 -54 28 -26 24 -31 33 -25 56 4 16 18 32 34 39 35 15 42 26 34 51
-4 12 -7 38 -7 59 0 20 -3 37 -6 37 -9 0 -39 59 -39 76 0 22 16 24 59 9 23 -8
47 -12 55 -9 16 6 14 70 -3 87 -13 13 -15 47 -2 47 6 0 13 -5 16 -11 9 -13
106 -2 155 17 32 13 70 60 70 86 0 6 -11 19 -25 30 -17 13 -24 26 -20 38 4 13
-2 20 -23 28 -53 18 -58 31 -60 152 l-2 113 46 68 c28 42 63 79 90 96 45 29
53 48 33 84 -12 24 -29 16 -29 -15 0 -12 -10 -31 -22 -42 -41 -35 -66 -40
-129 -30 l-59 10 6 35 c4 20 11 42 16 48 15 19 3 40 -27 47 -15 4 -44 18 -64
32 -19 13 -45 24 -57 24 -12 0 -46 24 -79 55 -67 63 -99 71 -110 28 -7 -28 -7
-28 -24 -7 -18 22 -80 37 -100 25z"/>
<path d="M2165 1484 c-11 -4 -12 -97 -1 -131 4 -12 2 -24 -4 -28 -21 -13 10
-43 62 -60 73 -24 125 -26 148 -6 20 17 30 77 16 99 -10 17 -118 87 -128 84
-4 -1 -19 9 -32 23 -24 24 -39 29 -61 19z"/>
<path d="M1580 608 c0 -18 18 -34 28 -24 3 4 -2 14 -11 23 -16 16 -17 16 -17
1z"/>
<path d="M1750 351 c0 -12 35 -41 48 -41 14 0 15 10 4 26 -9 13 -52 25 -52 15z"/>
<path d="M1847 278 c2 -5 15 -8 28 -8 13 0 26 -4 29 -9 3 -5 15 -7 26 -4 41
11 28 21 -29 25 -33 1 -57 0 -54 -4z"/>
<path d="M1978 233 c-11 -14 -10 -15 7 -10 24 8 53 -7 36 -17 -17 -11 -13 -23
9 -29 11 -3 24 -16 29 -29 9 -20 10 -21 10 -3 0 27 -44 98 -63 101 -8 1 -21
-5 -28 -13z"/>
<path d="M1903 220 c-30 -12 -29 -15 7 -17 22 -2 28 1 23 12 -3 8 -6 15 -7 14
0 0 -11 -4 -23 -9z"/>
<path d="M2079 171 c10 -17 51 -31 90 -31 15 1 -75 50 -92 50 -4 0 -3 -8 2
-19z"/>
<path d="M2008 153 c7 -3 16 -2 19 1 4 3 -2 6 -13 5 -11 0 -14 -3 -6 -6z"/>
</g>
</svg>
